HIERARCHY
ROOT hip
{
  OFFSET 0.00112043 5.09927 -9.65472
  CHANNELS 6 Xposition Yposition Zposition Zrotation Xrotation Yrotation
  JOINT abdomen
  {
    OFFSET 0 -1.186 -1.5018
    CHANNELS 3 Zrotation Xrotation Yrotation
    JOINT abdomen2
    {
      OFFSET 0 9.964 0.2134
      CHANNELS 3 Zrotation Xrotation Yrotation
      JOINT chest
      {
        OFFSET 0 13.134 -3.2573
        CHANNELS 3 Zrotation Xrotation Yrotation
        JOINT neck
        {
          OFFSET 0 20.686 -1.6905
          CHANNELS 3 Zrotation Xrotation Yrotation
          JOINT head
          {
            OFFSET 0 7.238 -0.1237
            CHANNELS 3 Zrotation Xrotation Yrotation
            End Site
            {
              OFFSET 0 0 0
            }
          }
        }
        JOINT lCollar
        {
          OFFSET 1.7069 20.075 5.0056
          CHANNELS 3 Zrotation Xrotation Yrotation
          JOINT lShldr
          {
            OFFSET 13.6458 -0.047 -4.849
            CHANNELS 3 Zrotation Xrotation Yrotation
            JOINT lForeArm
            {
              OFFSET 28.3255 -0.9759 2.2888
              CHANNELS 3 Zrotation Xrotation Yrotation
              JOINT lHand
              {
                OFFSET 22.1583 -0.53 10.8316
                CHANNELS 3 Zrotation Xrotation Yrotation
                JOINT lThumb1
                {
                  OFFSET 0.786 0.112 2.5817
                  CHANNELS 3 Zrotation Xrotation Yrotation
                  JOINT lThumb2
                  {
                    OFFSET 0.3601 -0.878 4.2331
                    CHANNELS 3 Zrotation Xrotation Yrotation
                    JOINT lThumb2_End
                    {
                      OFFSET 1.8127 -1.216 2.2227
                      CHANNELS 3 Zrotation Xrotation Yrotation
                      End Site
                      {
                        OFFSET 0.0181 -0.0122 0.0222
                      }
                    }
                  }
                }
                JOINT lCarpal1
                {
                  OFFSET 0.9571 1.114 1.7695
                  CHANNELS 3 Zrotation Xrotation Yrotation
                  JOINT lIndex1
                  {
                    OFFSET 4.1246 0.487 4.1451
                    CHANNELS 3 Zrotation Xrotation Yrotation
                    JOINT lIndex2
                    {
                      OFFSET 3.4052 -1.454 2.7682
                      CHANNELS 3 Zrotation Xrotation Yrotation
                      JOINT lIndex2_End
                      {
                        OFFSET 1.4531 -1.795 1.2713
                        CHANNELS 3 Zrotation Xrotation Yrotation
                        End Site
                        {
                          OFFSET 0.0145 -0.0179 0.0127
                        }
                      }
                    }
                  }
                  JOINT lMid1
                  {
                    OFFSET 5.6954 0.21 2.1184
                    CHANNELS 3 Zrotation Xrotation Yrotation
                    JOINT lMid2
                    {
                      OFFSET 3.9766 -1.54 2.3863
                      CHANNELS 3 Zrotation Xrotation Yrotation
                      JOINT lMid2_End
                      {
                        OFFSET 1.4042 -1.926 1.125
                        CHANNELS 3 Zrotation Xrotation Yrotation
                        End Site
                        {
                          OFFSET 0.014 -0.0193 0.0113
                        }
                      }
                    }
                  }
                }
                JOINT lCarpal2
                {
                  OFFSET 2.0956 0.66 -0.3894
                  CHANNELS 3 Zrotation Xrotation Yrotation
                  JOINT lRing1
                  {
                    OFFSET 5.0395 -0.09 2.4971
                    CHANNELS 3 Zrotation Xrotation Yrotation
                    JOINT lRing2
                    {
                      OFFSET 3.7921 -1.552 1.4806
                      CHANNELS 3 Zrotation Xrotation Yrotation
                      JOINT lRing2_End
                      {
                        OFFSET 1.4655 -1.808 0.9609
                        CHANNELS 3 Zrotation Xrotation Yrotation
                        End Site
                        {
                          OFFSET 0.0147 -0.0181 0.0096
                        }
                      }
                    }
                  }
                  JOINT lPinky1
                  {
                    OFFSET 4.9141 -1.269 0.3591
                    CHANNELS 3 Zrotation Xrotation Yrotation
                    JOINT lPinky2
                    {
                      OFFSET 3.1477 -1.685 0.8462
                      CHANNELS 3 Zrotation Xrotation Yrotation
                      JOINT lPinky2_End
                      {
                        OFFSET 0.8055 -1.585 0.7955
                        CHANNELS 3 Zrotation Xrotation Yrotation
                        End Site
                        {
                          OFFSET 0.0081 -0.0158 0.008
                        }
                      }
                    }
                  }
                }
              }
            }
          }
        }
        JOINT rCollar
        {
          OFFSET -1.7069 20.075 5.0056
          CHANNELS 3 Zrotation Xrotation Yrotation
          JOINT rShldr
          {
            OFFSET -13.6458 -0.047 -4.849
            CHANNELS 3 Zrotation Xrotation Yrotation
            JOINT rForeArm
            {
              OFFSET -28.3255 -0.9759 2.2888
              CHANNELS 3 Zrotation Xrotation Yrotation
              JOINT rHand
              {
                OFFSET -22.1583 -0.53 10.8316
                CHANNELS 3 Zrotation Xrotation Yrotation
                JOINT rThumb1
                {
                  OFFSET -0.786 0.112 2.5817
                  CHANNELS 3 Zrotation Xrotation Yrotation
                  JOINT rThumb2
                  {
                    OFFSET -0.3601 -0.878 4.2331
                    CHANNELS 3 Zrotation Xrotation Yrotation
                    JOINT rThumb2_End
                    {
                      OFFSET -1.8127 -1.216 2.2227
                      CHANNELS 3 Zrotation Xrotation Yrotation
                      End Site
                      {
                        OFFSET -0.0181 -0.0122 0.0222
                      }
                    }
                  }
                }
                JOINT rCarpal1
                {
                  OFFSET -0.9571 1.114 1.7695
                  CHANNELS 3 Zrotation Xrotation Yrotation
                  JOINT rIndex1
                  {
                    OFFSET -4.1246 0.487 4.1451
                    CHANNELS 3 Zrotation Xrotation Yrotation
                    JOINT rIndex2
                    {
                      OFFSET -3.4052 -1.454 2.7682
                      CHANNELS 3 Zrotation Xrotation Yrotation
                      JOINT rIndex2_End
                      {
                        OFFSET -1.4531 -1.795 1.2713
                        CHANNELS 3 Zrotation Xrotation Yrotation
                        End Site
                        {
                          OFFSET -0.0145 -0.018 0.0127
                        }
                      }
                    }
                  }
                  JOINT rMid1
                  {
                    OFFSET -5.6954 0.21 2.1184
                    CHANNELS 3 Zrotation Xrotation Yrotation
                    JOINT rMid2
                    {
                      OFFSET -3.9766 -1.54 2.3863
                      CHANNELS 3 Zrotation Xrotation Yrotation
                      JOINT rMid2_End
                      {
                        OFFSET -1.4042 -1.926 1.125
                        CHANNELS 3 Zrotation Xrotation Yrotation
                        End Site
                        {
                          OFFSET -0.014 -0.0193 0.0113
                        }
                      }
                    }
                  }
                }
                JOINT rCarpal2
                {
                  OFFSET -2.0956 0.66 -0.3894
                  CHANNELS 3 Zrotation Xrotation Yrotation
                  JOINT rRing1
                  {
                    OFFSET -5.0395 -0.09 2.4971
                    CHANNELS 3 Zrotation Xrotation Yrotation
                    JOINT rRing2
                    {
                      OFFSET -3.7921 -1.552 1.4806
                      CHANNELS 3 Zrotation Xrotation Yrotation
                      JOINT rRing2_End
                      {
                        OFFSET -1.4655 -1.808 0.9609
                        CHANNELS 3 Zrotation Xrotation Yrotation
                        End Site
                        {
                          OFFSET -0.0147 -0.0181 0.0096
                        }
                      }
                    }
                  }
                  JOINT rPinky1
                  {
                    OFFSET -4.9141 -1.269 0.3592
                    CHANNELS 3 Zrotation Xrotation Yrotation
                    JOINT rPinky2
                    {
                      OFFSET -3.1477 -1.685 0.8462
                      CHANNELS 3 Zrotation Xrotation Yrotation
                      JOINT rPinky2_End
                      {
                        OFFSET -0.8055 -1.585 0.7955
                        CHANNELS 3 Zrotation Xrotation Yrotation
                        End Site
                        {
                          OFFSET -0.0081 -0.0158 0.008
                        }
                      }
                    }
                  }
                }
              }
            }
          }
        }
      }
    }
  }
  JOINT lThigh
  {
    OFFSET 8.367 -8.2066 0.5982
    CHANNELS 3 Zrotation Xrotation Yrotation
    JOINT lShin
    {
      OFFSET 2.1923 -43.463 -0.4932
      CHANNELS 3 Zrotation Xrotation Yrotation
      JOINT lFoot
      {
        OFFSET 0.7333 -45.8593 -2.6451
        CHANNELS 3 Zrotation Xrotation Yrotation
        End Site
        {
          OFFSET 2.6618 -4.2699 12.3931
        }
      }
    }
  }
  JOINT rThigh
  {
    OFFSET -8.367 -8.2066 0.5982
    CHANNELS 3 Zrotation Xrotation Yrotation
    JOINT rShin
    {
      OFFSET -2.1923 -43.463 -0.4931
      CHANNELS 3 Zrotation Xrotation Yrotation
      JOINT rFoot
      {
        OFFSET -0.7333 -45.8593 -2.6451
        CHANNELS 3 Zrotation Xrotation Yrotation
        End Site
        {
          OFFSET -2.6618 -4.2699 12.3931
        }
      }
    }
  }
}
MOTION
Frames:	4
Frame Time:	0.0333333
0 91.7903 2.51682 0 0 -0 0 0 -0 0 0 -0 0 0 -0 0 0 -0 0 0 -0 0 0 -0 1.66051 0.0835086 5.75766 -0.0175111 0.895433 15.7816 7.95139e-016 -1.98785e-016 -0 5.46658e-016 -3.97569e-016 -0 5.96354e-016 0 -0 3.97569e-016 1.98785e-016 9.54166e-015 1.49089e-016 -3.97569e-016 -0 6.4605e-016 0 3.18055e-015 5.96354e-016 0 3.18055e-015 8.94531e-016 -1.98785e-016 6.36111e-015 6.4605e-016 0 3.18055e-015 5.96354e-016 0 3.18055e-015 8.94531e-016 -1.98785e-016 6.36111e-015 1.49089e-016 -3.97569e-016 -0 6.4605e-016 0 3.18055e-015 5.96354e-016 0 3.18055e-015 8.94531e-016 -1.98785e-016 6.36111e-015 6.4605e-016 0 3.18055e-015 5.96354e-016 0 3.18055e-015 8.94531e-016 -1.98785e-016 6.36111e-015 0 0 -0 -1.4496 0.0636048 -5.0245 -1.74811 1.20616 -16.8394 -1.19271e-015 1.98785e-016 -3.18055e-015 -3.97569e-016 1.98785e-016 -3.18055e-015 -2.98177e-016 1.98785e-016 -3.18055e-015 -2.98177e-016 3.97569e-016 -0 4.96962e-016 0 -6.36111e-015 -9.93923e-017 3.97569e-016 -0 -8.94531e-016 5.96354e-016 -0 -3.97569e-016 3.97569e-016 -0 -9.93923e-017 3.97569e-016 -0 -8.94531e-016 5.96354e-016 -0 -3.97569e-016 3.97569e-016 -0 4.96962e-016 0 -6.36111e-015 -9.93923e-017 3.97569e-016 -0 -8.94531e-016 5.96354e-016 -0 -3.97569e-016 3.97569e-016 -0 -9.93923e-017 3.97569e-016 -0 -8.94531e-016 5.96354e-016 -0 -3.97569e-016 3.97569e-016 -0 -4.66111 -0.998717 0.12318 0.00986924 1.54847 0.176523 4.65186 -0.572283 -0.254274 4.66111 -0.998765 -0.123176 -0.00986867 1.54869 -0.176537 -4.65186 -0.572453 0.25427 
-0.665258 22.1872 -9.89778 37.1666 -66.5989 0.142228 -6.97334 2.81243 -2.50516 -13.8445 5.90615 -4.65863 -13.8445 5.90616 -4.65862 -20.1602 -0.483297 5.62678 -0.816592 -1.34854 21.6635 -13.003 10.3657 -17.834 12.3339 -28.2751 30.4529 6.1705 1.21726 -13.6485 -29.3306 -35.275 -23.4566 -1.86627e-006 -1.8555e-006 2.02835e-006 6.26868e-006 2.43134e-006 7.0151e-006 -9.21547e-007 2.24822e-006 6.1678e-006 -3.18055e-015 3.97569e-015 -3.18055e-015 -1.86627e-006 -1.8555e-006 2.02835e-006 6.26868e-006 2.43134e-006 7.0151e-006 -9.21547e-007 2.24822e-006 6.1678e-006 -1.86627e-006 -1.8555e-006 2.02835e-006 6.26868e-006 2.43134e-006 7.0151e-006 -9.21547e-007 2.24822e-006 6.1678e-006 -3.18055e-015 3.97569e-015 -3.18055e-015 -1.86627e-006 -1.8555e-006 2.02835e-006 6.26868e-006 2.43134e-006 7.0151e-006 -9.21547e-007 2.24822e-006 6.1678e-006 -1.86627e-006 -1.8555e-006 2.02835e-006 6.26868e-006 2.43134e-006 7.0151e-006 -9.21547e-007 2.24822e-006 6.1678e-006 0.866854 2.86615 -24.8009 -0.700836 24.1521 16.6659 -36.0398 -24.8588 14.4623 0.928827 8.7695 2.96581 -1.59028e-015 -1.59028e-015 3.18055e-015 -7.95139e-016 0 3.18055e-015 -7.95139e-016 3.18055e-015 3.18055e-015 -1.59028e-015 -3.18055e-015 3.18055e-015 -5.56597e-015 1.59028e-015 6.36111e-015 1.76556e-031 -1.59028e-015 6.36111e-015 -5.29669e-031 4.77083e-015 6.36111e-015 -5.56597e-015 1.59028e-015 6.36111e-015 1.76556e-031 -1.59028e-015 6.36111e-015 -5.29669e-031 4.77083e-015 6.36111e-015 -1.59028e-015 -3.18055e-015 3.18055e-015 -5.56597e-015 1.59028e-015 6.36111e-015 1.76556e-031 -1.59028e-015 6.36111e-015 -5.29669e-031 4.77083e-015 6.36111e-015 -5.56597e-015 1.59028e-015 6.36111e-015 1.76556e-031 -1.59028e-015 6.36111e-015 -5.29669e-031 4.77083e-015 6.36111e-015 40.7468 -61.7911 73.5525 -5.12624 -1.49203 0.748914 9.8575 9.3348 -6.95439 -32.6277 -53.6328 -30.9044 -3.62864 50.4208 1.21452 6.67295 14.8034 -3.89913 
2.79392 -9.15451 -7.26905 -124.609 -83.0866 -178.301 -9.98203 3.94118 -3.73464 -19.7662 8.46431 -6.75309 -19.7661 8.46431 -6.75309 -29.1245 -0.881227 8.08979 -0.783153 -1.92303 31.4363 -16.7448 14.2101 -26.2861 25.6728 -36.2849 45.8048 9.32627 0.811355 -27.3018 -54.2469 -42.6789 -43.0567 -3.53113e-031 -3.18055e-015 -6.36111e-015 -0 -3.18055e-015 -0 6.36111e-015 -6.36111e-015 -3.18055e-015 -3.53113e-031 -3.18055e-015 -6.36111e-015 -6.36111e-015 -6.36111e-015 9.54166e-015 -3.18055e-015 -3.18055e-015 -0 3.18055e-015 0 -6.36111e-015 -6.36111e-015 -6.36111e-015 9.54166e-015 -3.18055e-015 -3.18055e-015 -0 3.18055e-015 0 -6.36111e-015 -3.53113e-031 -3.18055e-015 -6.36111e-015 -6.36111e-015 -6.36111e-015 9.54166e-015 -3.18055e-015 -3.18055e-015 -0 3.18055e-015 0 -6.36111e-015 -6.36111e-015 -6.36111e-015 9.54166e-015 -3.18055e-015 -3.18055e-015 -0 3.18055e-015 0 -6.36111e-015 2.09571 3.73053 -35.9203 -6.96399 32.2271 29.367 -43.7925 -29.8602 31.3107 0.904334 12.2834 4.47634 -3.97569e-016 -1.59028e-015 -3.18055e-015 -3.97569e-016 -1.59028e-015 -3.18055e-015 1.19271e-015 -1.59028e-015 -0 -3.97569e-016 -7.95139e-016 -3.18055e-015 1.59028e-015 0 6.36111e-015 3.97569e-016 -7.95139e-016 -0 3.97569e-016 -1.59028e-015 -3.18055e-015 1.59028e-015 0 6.36111e-015 3.97569e-016 -7.95139e-016 -0 3.97569e-016 -1.59028e-015 -3.18055e-015 -3.97569e-016 -7.95139e-016 -3.18055e-015 1.59028e-015 0 6.36111e-015 3.97569e-016 -7.95139e-016 -0 3.97569e-016 -1.59028e-015 -3.18055e-015 1.59028e-015 0 6.36111e-015 3.97569e-016 -7.95139e-016 -0 3.97569e-016 -1.59028e-015 -3.18055e-015 84.9071 -43.635 115.132 -7.42396 -2.0946 1.17779 13.8556 12.5658 -10.6441 -90.0508 -65.5721 -79.7091 -13.7546 75.2741 8.69375 11.8104 20.329 -6.62023 
2.11909 -2.50611 -8.21453 -90.0337 -88.781 -140.033 -9.26092 3.99487 -3.40714 -18.3426 8.48115 -6.14835 -18.3426 8.48116 -6.14834 -26.9688 -1.20499 7.38851 -0.640275 -2.09999 29.2998 -16.021 13.4241 -24.3775 21.0777 -33.5256 41.4566 8.62918 0.757012 -25.2453 -48.1485 -41.7318 -38.3038 -1.69533e-006 1.87122e-007 -4.27215e-006 1.28599e-006 1.24588e-006 1.36402e-006 1.59028e-015 3.18055e-015 -9.54166e-015 7.95139e-015 -1.59028e-015 9.54166e-015 -1.69533e-006 1.87122e-007 -4.27215e-006 1.28599e-006 1.24588e-006 1.36402e-006 4.77083e-015 -1.59028e-015 -9.54166e-015 -1.69533e-006 1.87122e-007 -4.27215e-006 1.28599e-006 1.24588e-006 1.36402e-006 4.77083e-015 -1.59028e-015 -9.54166e-015 7.95139e-015 -1.59028e-015 9.54166e-015 -1.69533e-006 1.87122e-007 -4.27215e-006 1.28599e-006 1.24588e-006 1.36402e-006 4.77083e-015 -1.59028e-015 -9.54166e-015 -1.69533e-006 1.87122e-007 -4.27215e-006 1.28599e-006 1.24588e-006 1.36402e-006 4.77083e-015 -1.59028e-015 -9.54166e-015 1.94041 3.63004 -33.2693 -5.19556 30.682 26.3302 -42.1603 -29.0274 27.1949 0.474837 10.7729 4.11892 -1.33588e-007 4.04717e-007 6.76853e-009 3.97569e-016 -1.59028e-015 6.36111e-015 -1.19271e-015 -7.95139e-016 -0 -1.32417e-031 -7.95139e-016 -9.54166e-015 -1.33588e-007 4.04717e-007 6.76854e-009 3.97569e-016 -7.95139e-016 3.18055e-015 -0 0 3.18055e-015 -1.33588e-007 4.04717e-007 6.76854e-009 3.97569e-016 -7.95139e-016 3.18055e-015 -0 0 3.18055e-015 -1.32417e-031 -7.95139e-016 -9.54166e-015 -1.33588e-007 4.04717e-007 6.76854e-009 3.97569e-016 -7.95139e-016 3.18055e-015 -0 0 3.18055e-015 -1.33588e-007 4.04717e-007 6.76854e-009 3.97569e-016 -7.95139e-016 3.18055e-015 -0 0 3.18055e-015 79.0675 -49.0075 111.012 -6.91495 -1.95616 1.05869 12.9822 11.6987 -10.7869 -71.328 -64.7549 -63.4889 -9.29599 69.8297 4.98667 10.8189 18.8896 -6.14347 
